<svg width="67" height="24" viewBox="0 0 67 24" fill="#7B61FF" xmlns="http://www.w3.org/2000/svg">
<path d="M4 12L20 12M4 12L10 6M4 12L10 18" stroke="#7B61FF" stroke-width="1.5" stroke-linecap="round" stroke-linejoin="round"/>
<path d="M38.258 11.502C38.7807 11.5953 39.224 11.8707 39.588 12.328C39.952 12.7853 40.134 13.3033 40.134 13.882C40.134 14.3767 40.0033 14.8247 39.742 15.226C39.49 15.618 39.1213 15.9307 38.636 16.164C38.1507 16.388 37.586 16.5 36.942 16.5H33.05V6.77H36.76C37.4227 6.77 37.992 6.882 38.468 7.106C38.944 7.33 39.3033 7.63333 39.546 8.016C39.7887 8.38933 39.91 8.80933 39.91 9.276C39.91 9.836 39.7607 10.3027 39.462 10.676C39.1633 11.0493 38.762 11.3247 38.258 11.502ZM34.646 10.858H36.62C37.1427 10.858 37.5487 10.7413 37.838 10.508C38.1367 10.2653 38.286 9.92 38.286 9.472C38.286 9.03333 38.1367 8.69267 37.838 8.45C37.5487 8.198 37.1427 8.072 36.62 8.072H34.646V10.858ZM36.802 15.198C37.3433 15.198 37.768 15.0673 38.076 14.806C38.384 14.5447 38.538 14.1807 38.538 13.714C38.538 13.238 38.3747 12.86 38.048 12.58C37.7213 12.3 37.2873 12.16 36.746 12.16H34.646V15.198H36.802ZM41.3364 12.608C41.3364 11.8333 41.495 11.1473 41.8124 10.55C42.139 9.95267 42.5777 9.49067 43.1284 9.164C43.6884 8.828 44.3044 8.66 44.9764 8.66C45.583 8.66 46.1104 8.78133 46.5584 9.024C47.0157 9.25733 47.3797 9.55133 47.6504 9.906V8.786H49.2604V16.5H47.6504V15.352C47.3797 15.716 47.011 16.0193 46.5444 16.262C46.0777 16.5047 45.5457 16.626 44.9484 16.626C44.2857 16.626 43.679 16.458 43.1284 16.122C42.5777 15.7767 42.139 15.3007 41.8124 14.694C41.495 14.078 41.3364 13.3827 41.3364 12.608ZM47.6504 12.636C47.6504 12.104 47.5384 11.642 47.3144 11.25C47.0997 10.858 46.815 10.5593 46.4604 10.354C46.1057 10.1487 45.723 10.046 45.3124 10.046C44.9017 10.046 44.519 10.1487 44.1644 10.354C43.8097 10.55 43.5204 10.844 43.2964 11.236C43.0817 11.6187 42.9744 12.076 42.9744 12.608C42.9744 13.14 43.0817 13.6067 43.2964 14.008C43.5204 14.4093 43.8097 14.7173 44.1644 14.932C44.5284 15.1373 44.911 15.24 45.3124 15.24C45.723 15.24 46.1057 15.1373 46.4604 14.932C46.815 14.7267 47.0997 14.428 47.3144 14.036C47.5384 13.6347 47.6504 13.168 47.6504 12.636ZM50.8246 12.636C50.8246 11.8427 50.9833 11.1473 51.3006 10.55C51.6273 9.94333 52.0753 9.47667 52.6446 9.15C53.214 8.82333 53.8673 8.66 54.6046 8.66C55.538 8.66 56.308 8.884 56.9146 9.332C57.5306 9.77067 57.946 10.4007 58.1606 11.222H56.4386C56.2986 10.8393 56.0746 10.5407 55.7666 10.326C55.4586 10.1113 55.0713 10.004 54.6046 10.004C53.9513 10.004 53.4286 10.2373 53.0366 10.704C52.654 11.1613 52.4626 11.8053 52.4626 12.636C52.4626 13.4667 52.654 14.1153 53.0366 14.582C53.4286 15.0487 53.9513 15.282 54.6046 15.282C55.5286 15.282 56.14 14.876 56.4386 14.064H58.1606C57.9366 14.848 57.5166 15.4733 56.9006 15.94C56.2846 16.3973 55.5193 16.626 54.6046 16.626C53.8673 16.626 53.214 16.4627 52.6446 16.136C52.0753 15.8 51.6273 15.3333 51.3006 14.736C50.9833 14.1293 50.8246 13.4293 50.8246 12.636ZM62.8032 12.65L66.3592 16.5H64.2032L61.3472 13.182V16.5H59.7512V6.14H61.3472V12.16L64.1472 8.786H66.3592L62.8032 12.65Z" fill="#7B61FF"/>
</svg>
